<svg width="19" height="20" viewBox="0 0 19 20" fill="none" xmlns="http://www.w3.org/2000/svg">
<path d="M18.4444 5.02112C18.3179 4.79323 18.1328 4.60591 17.9095 4.47991L10.2916 0.176129C10.0879 0.060584 9.85933 0 9.62695 0C9.39458 0 9.16597 0.060584 8.96234 0.176129L1.34695 4.47901C1.1237 4.60502 0.938598 4.79234 0.812145 5.02022C0.691606 5.23591 0.627766 5.48035 0.626953 5.72933V14.2708C0.627516 14.5266 0.694626 14.7776 0.821277 14.9976C0.947927 15.2175 1.12947 15.3983 1.34695 15.5211L8.96234 19.8231C9.16581 19.9391 9.39448 20 9.62695 20C9.85942 20 10.0881 19.9391 10.2916 19.8231L17.907 15.5211C18.1244 15.3983 18.306 15.2175 18.4326 14.9976C18.5593 14.7776 18.6264 14.5266 18.627 14.2708V5.72933C18.6268 5.48089 18.5638 5.23679 18.4444 5.02112ZM8.93465 18.1816L6.16541 16.6169V12.1435C6.16513 12.0156 6.13158 11.8901 6.06825 11.7801C6.00493 11.6701 5.91416 11.5797 5.80541 11.5183L2.01157 9.37491V6.51703L8.93465 10.4287V18.1816ZM9.62695 9.18557L2.76099 5.30601L5.74484 3.62076L9.29291 5.62573C9.3948 5.68327 9.50908 5.71342 9.62522 5.71342C9.74137 5.71342 9.85564 5.68327 9.95753 5.62573L13.5056 3.62076L16.4895 5.30601L9.62695 9.18557ZM17.2423 9.37312L13.4485 11.5165C13.3398 11.5779 13.249 11.6683 13.1857 11.7783C13.1223 11.8883 13.0888 12.0138 13.0885 12.1417V16.6152L10.3193 18.1798V10.4234L17.2423 6.51168V9.37312Z" fill="#A8A5BD"/>
</svg>
