<svg width="41" height="140" viewBox="0 0 41 140" fill="none" xmlns="http://www.w3.org/2000/svg">
<rect x="19.8271" width="1" height="100" fill="url(#paint0_linear_0_1)"/>
<rect x="0.627441" y="100" width="40" height="40" rx="20" fill="url(#paint1_linear_0_1)"/>
<path d="M19.6443 126.224C18.8016 126.224 18.0549 126.075 17.4043 125.776C16.7536 125.477 16.2416 125.051 15.8683 124.496C15.5056 123.931 15.3243 123.264 15.3243 122.496V122.208H17.3723V122.432C17.3723 123.029 17.5803 123.509 17.9963 123.872C18.4123 124.224 18.9616 124.4 19.6443 124.4C20.3376 124.4 20.8709 124.235 21.2443 123.904C21.6283 123.573 21.8203 123.157 21.8203 122.656V122.496C21.8203 122.155 21.7349 121.877 21.5643 121.664C21.3936 121.451 21.1643 121.296 20.8763 121.2C20.5883 121.093 20.2629 121.04 19.9003 121.04H17.6603V118.8L21.2763 116.88V116.624H15.6123V114.8H23.5483V117.52L20.1723 119.312V119.568H20.7643C21.2656 119.568 21.7509 119.669 22.2203 119.872C22.7003 120.075 23.0949 120.389 23.4043 120.816C23.7136 121.232 23.8683 121.776 23.8683 122.448V122.64C23.8683 123.365 23.6923 124 23.3403 124.544C22.9883 125.077 22.4923 125.493 21.8523 125.792C21.2229 126.08 20.4869 126.224 19.6443 126.224Z" fill="black"/>
<defs>
<linearGradient id="paint0_linear_0_1" x1="19.6272" y1="4.24235e-07" x2="20.627" y2="100" gradientUnits="userSpaceOnUse">
<stop/>
<stop offset="0.845839" stop-color="#8856B8"/>
</linearGradient>
<linearGradient id="paint1_linear_0_1" x1="0.627441" y1="120" x2="40.6274" y2="120" gradientUnits="userSpaceOnUse">
<stop stop-color="#6820B0"/>
<stop offset="1" stop-color="#8856B8"/>
</linearGradient>
</defs>
</svg>
