<svg width="588" height="1441" viewBox="0 0 588 1441" fill="none" xmlns="http://www.w3.org/2000/svg">
<rect width="2" height="100" transform="matrix(-1 0 0 1 258.627 0)" fill="url(#paint0_linear_0_1)"/>
<g filter="url(#filter0_i_0_1)">
<ellipse cx="257.628" cy="532" rx="11.9998" ry="12" fill="white" fill-opacity="0.01"/>
</g>
<path d="M268.627 532C268.627 538.075 263.703 543 257.628 543C251.553 543 246.628 538.075 246.628 532C246.628 525.925 251.553 521 257.628 521C263.703 521 268.627 525.925 268.627 532Z" stroke="#444444" stroke-width="2"/>
<g filter="url(#filter1_i_0_1)">
<ellipse cx="257.628" cy="114" rx="11.9998" ry="12" fill="white" fill-opacity="0.01"/>
</g>
<path d="M268.627 114C268.627 120.075 263.703 125 257.628 125C251.553 125 246.628 120.075 246.628 114C246.628 107.925 251.553 103 257.628 103C263.703 103 268.627 107.925 268.627 114Z" stroke="#444444" stroke-width="2"/>
<path d="M254.06 537V535.824C254.06 535.143 254.172 534.578 254.396 534.13C254.62 533.673 254.942 533.299 255.362 533.01C255.791 532.711 256.314 532.469 256.93 532.282L257.868 531.988C258.213 531.876 258.502 531.741 258.736 531.582C258.969 531.414 259.146 531.213 259.268 530.98C259.398 530.747 259.464 530.481 259.464 530.182V530.126C259.464 529.659 259.305 529.291 258.988 529.02C258.67 528.74 258.236 528.6 257.686 528.6C257.144 528.6 256.706 528.749 256.37 529.048C256.043 529.337 255.88 529.757 255.88 530.308V530.56H254.088V530.336C254.088 529.627 254.246 529.025 254.564 528.53C254.881 528.035 255.31 527.657 255.852 527.396C256.402 527.135 257.014 527.004 257.686 527.004C258.358 527.004 258.964 527.135 259.506 527.396C260.047 527.648 260.472 528.007 260.78 528.474C261.097 528.931 261.256 529.473 261.256 530.098V530.238C261.256 530.863 261.125 531.395 260.864 531.834C260.612 532.263 260.266 532.618 259.828 532.898C259.389 533.169 258.89 533.393 258.33 533.57L257.434 533.85C257.032 533.971 256.72 534.107 256.496 534.256C256.272 534.396 256.113 534.555 256.02 534.732C255.936 534.9 255.894 535.105 255.894 535.348V535.404H261.172V537H254.06Z" fill="white"/>
<path d="M258.075 119V110.516H257.823L256.507 113.624H254.631L256.633 109.2H259.867V119H258.075Z" fill="white"/>
<mask id="path-8-inside-1_0_1" fill="white">
<path d="M256.627 128H258.627V518H256.627V128Z"/>
</mask>
<path d="M260.627 518V516.5H256.627V518H260.627ZM260.627 514.5V511.5H256.627V514.5H260.627ZM260.627 509.5V506.5H256.627V509.5H260.627ZM260.627 504.5V501.5H256.627V504.5H260.627ZM260.627 499.5V496.5H256.627V499.5H260.627ZM260.627 494.5V491.5H256.627V494.5H260.627ZM260.627 489.5V486.5H256.627V489.5H260.627ZM260.627 484.5V481.5H256.627V484.5H260.627ZM260.627 479.5V476.5H256.627V479.5H260.627ZM260.627 474.5V471.5H256.627V474.5H260.627ZM260.627 469.5V466.5H256.627V469.5H260.627ZM260.627 464.5V461.5H256.627V464.5H260.627ZM260.627 459.5V456.5H256.627V459.5H260.627ZM260.627 454.5V451.5H256.627V454.5H260.627ZM260.627 449.5V446.5H256.627V449.5H260.627ZM260.627 444.5V441.5H256.627V444.5H260.627ZM260.627 439.5V436.5H256.627V439.5H260.627ZM260.627 434.5V431.5H256.627V434.5H260.627ZM260.627 429.5V426.5H256.627V429.5H260.627ZM260.627 424.5V421.5H256.627V424.5H260.627ZM260.627 419.5V416.5H256.627V419.5H260.627ZM260.627 414.5V411.5H256.627V414.5H260.627ZM260.627 409.5V406.5H256.627V409.5H260.627ZM260.627 404.5V401.5H256.627V404.5H260.627ZM260.627 399.5V396.5H256.627V399.5H260.627ZM260.627 394.5V391.5H256.627V394.5H260.627ZM260.627 389.5V386.5H256.627V389.5H260.627ZM260.627 384.5V381.5H256.627V384.5H260.627ZM260.627 379.5V376.5H256.627V379.5H260.627ZM260.627 374.5V371.5H256.627V374.5H260.627ZM260.627 369.5V366.5H256.627V369.5H260.627ZM260.627 364.5V361.5H256.627V364.5H260.627ZM260.627 359.5V356.5H256.627V359.5H260.627ZM260.627 354.5V351.5H256.627V354.5H260.627ZM260.627 349.5V346.5H256.627V349.5H260.627ZM260.627 344.5V341.5H256.627V344.5H260.627ZM260.627 339.5V336.5H256.627V339.5H260.627ZM260.627 334.5V331.5H256.627V334.5H260.627ZM260.627 329.5V326.5H256.627V329.5H260.627ZM260.627 324.5V321.5H256.627V324.5H260.627ZM260.627 319.5V316.5H256.627V319.5H260.627ZM260.627 314.5V311.5H256.627V314.5H260.627ZM260.627 309.5V306.5H256.627V309.5H260.627ZM260.627 304.5V301.5H256.627V304.5H260.627ZM260.627 299.5V296.5H256.627V299.5H260.627ZM260.627 294.5V291.5H256.627V294.5H260.627ZM260.627 289.5V286.5H256.627V289.5H260.627ZM260.627 284.5V281.5H256.627V284.5H260.627ZM260.627 279.5V276.5H256.627V279.5H260.627ZM260.627 274.5V271.5H256.627V274.5H260.627ZM260.627 269.5V266.5H256.627V269.5H260.627ZM260.627 264.5V261.5H256.627V264.5H260.627ZM260.627 259.5V256.5H256.627V259.5H260.627ZM260.627 254.5V251.5H256.627V254.5H260.627ZM260.627 249.5V246.5H256.627V249.5H260.627ZM260.627 244.5V241.5H256.627V244.5H260.627ZM260.627 239.5V236.5H256.627V239.5H260.627ZM260.627 234.5V231.5H256.627V234.5H260.627ZM260.627 229.5V226.5H256.627V229.5H260.627ZM260.627 224.5V221.5H256.627V224.5H260.627ZM260.627 219.5V216.5H256.627V219.5H260.627ZM260.627 214.5V211.5H256.627V214.5H260.627ZM260.627 209.5V206.5H256.627V209.5H260.627ZM260.627 204.5V201.5H256.627V204.5H260.627ZM260.627 199.5V196.5H256.627V199.5H260.627ZM260.627 194.5V191.5H256.627V194.5H260.627ZM260.627 189.5V186.5H256.627V189.5H260.627ZM260.627 184.5V181.5H256.627V184.5H260.627ZM260.627 179.5V176.5H256.627V179.5H260.627ZM260.627 174.5V171.5H256.627V174.5H260.627ZM260.627 169.5V166.5H256.627V169.5H260.627ZM260.627 164.5V161.5H256.627V164.5H260.627ZM260.627 159.5V156.5H256.627V159.5H260.627ZM260.627 154.5V151.5H256.627V154.5H260.627ZM260.627 149.5V146.5H256.627V149.5H260.627ZM260.627 144.5V141.5H256.627V144.5H260.627ZM260.627 139.5V136.5H256.627V139.5H260.627ZM260.627 134.5V131.5H256.627V134.5H260.627ZM260.627 129.5V128H256.627V129.5H260.627ZM262.627 518V516.5H254.627V518H262.627ZM262.627 514.5V511.5H254.627V514.5H262.627ZM262.627 509.5V506.5H254.627V509.5H262.627ZM262.627 504.5V501.5H254.627V504.5H262.627ZM262.627 499.5V496.5H254.627V499.5H262.627ZM262.627 494.5V491.5H254.627V494.5H262.627ZM262.627 489.5V486.5H254.627V489.5H262.627ZM262.627 484.5V481.5H254.627V484.5H262.627ZM262.627 479.5V476.5H254.627V479.5H262.627ZM262.627 474.5V471.5H254.627V474.5H262.627ZM262.627 469.5V466.5H254.627V469.5H262.627ZM262.627 464.5V461.5H254.627V464.5H262.627ZM262.627 459.5V456.5H254.627V459.5H262.627ZM262.627 454.5V451.5H254.627V454.5H262.627ZM262.627 449.5V446.5H254.627V449.5H262.627ZM262.627 444.5V441.5H254.627V444.5H262.627ZM262.627 439.5V436.5H254.627V439.5H262.627ZM262.627 434.5V431.5H254.627V434.5H262.627ZM262.627 429.5V426.5H254.627V429.5H262.627ZM262.627 424.5V421.5H254.627V424.5H262.627ZM262.627 419.5V416.5H254.627V419.5H262.627ZM262.627 414.5V411.5H254.627V414.5H262.627ZM262.627 409.5V406.5H254.627V409.5H262.627ZM262.627 404.5V401.5H254.627V404.5H262.627ZM262.627 399.5V396.5H254.627V399.5H262.627ZM262.627 394.5V391.5H254.627V394.5H262.627ZM262.627 389.5V386.5H254.627V389.5H262.627ZM262.627 384.5V381.5H254.627V384.5H262.627ZM262.627 379.5V376.5H254.627V379.5H262.627ZM262.627 374.5V371.5H254.627V374.5H262.627ZM262.627 369.5V366.5H254.627V369.5H262.627ZM262.627 364.5V361.5H254.627V364.5H262.627ZM262.627 359.5V356.5H254.627V359.5H262.627ZM262.627 354.5V351.5H254.627V354.5H262.627ZM262.627 349.5V346.5H254.627V349.5H262.627ZM262.627 344.5V341.5H254.627V344.5H262.627ZM262.627 339.5V336.5H254.627V339.5H262.627ZM262.627 334.5V331.5H254.627V334.5H262.627ZM262.627 329.5V326.5H254.627V329.5H262.627ZM262.627 324.5V321.5H254.627V324.5H262.627ZM262.627 319.5V316.5H254.627V319.5H262.627ZM262.627 314.5V311.5H254.627V314.5H262.627ZM262.627 309.5V306.5H254.627V309.5H262.627ZM262.627 304.5V301.5H254.627V304.5H262.627ZM262.627 299.5V296.5H254.627V299.5H262.627ZM262.627 294.5V291.5H254.627V294.5H262.627ZM262.627 289.5V286.5H254.627V289.5H262.627ZM262.627 284.5V281.5H254.627V284.5H262.627ZM262.627 279.5V276.5H254.627V279.5H262.627ZM262.627 274.5V271.5H254.627V274.5H262.627ZM262.627 269.5V266.5H254.627V269.5H262.627ZM262.627 264.5V261.5H254.627V264.5H262.627ZM262.627 259.5V256.5H254.627V259.5H262.627ZM262.627 254.5V251.5H254.627V254.5H262.627ZM262.627 249.5V246.5H254.627V249.5H262.627ZM262.627 244.5V241.5H254.627V244.5H262.627ZM262.627 239.5V236.5H254.627V239.5H262.627ZM262.627 234.5V231.5H254.627V234.5H262.627ZM262.627 229.5V226.5H254.627V229.5H262.627ZM262.627 224.5V221.5H254.627V224.5H262.627ZM262.627 219.5V216.5H254.627V219.5H262.627ZM262.627 214.5V211.5H254.627V214.5H262.627ZM262.627 209.5V206.5H254.627V209.5H262.627ZM262.627 204.5V201.5H254.627V204.5H262.627ZM262.627 199.5V196.5H254.627V199.5H262.627ZM262.627 194.5V191.5H254.627V194.5H262.627ZM262.627 189.5V186.5H254.627V189.5H262.627ZM262.627 184.5V181.5H254.627V184.5H262.627ZM262.627 179.5V176.5H254.627V179.5H262.627ZM262.627 174.5V171.5H254.627V174.5H262.627ZM262.627 169.5V166.5H254.627V169.5H262.627ZM262.627 164.5V161.5H254.627V164.5H262.627ZM262.627 159.5V156.5H254.627V159.5H262.627ZM262.627 154.5V151.5H254.627V154.5H262.627ZM262.627 149.5V146.5H254.627V149.5H262.627ZM262.627 144.5V141.5H254.627V144.5H262.627ZM262.627 139.5V136.5H254.627V139.5H262.627ZM262.627 134.5V131.5H254.627V134.5H262.627ZM262.627 129.5V128H254.627V129.5H262.627Z" fill="#444444" mask="url(#path-8-inside-1_0_1)"/>
<mask id="path-10-inside-2_0_1" fill="white">
<path d="M246.627 113L246.627 115L0.627441 115L0.627441 113L246.627 113Z"/>
</mask>
<path d="M0.627441 117L2.13356 117L2.13356 113L0.627441 113L0.627441 117ZM4.14172 117L7.15398 117L7.15398 113L4.14172 113L4.14172 117ZM9.16214 117L12.1744 117L12.1744 113L9.16214 113L9.16214 117ZM14.1825 117L17.1948 117L17.1948 113L14.1825 113L14.1825 117ZM19.203 117L22.2152 117L22.2152 113L19.203 113L19.203 117ZM24.2234 117L27.2356 117L27.2356 113L24.2234 113L24.2234 117ZM29.2438 117L32.256 117L32.256 113L29.2438 113L29.2438 117ZM34.2642 117L37.2764 117L37.2764 113L34.2642 113L34.2642 117ZM39.2846 117L42.2968 117L42.2968 113L39.2846 113L39.2846 117ZM44.305 117L47.3172 117L47.3172 113L44.305 113L44.305 117ZM49.3254 117L52.3376 117L52.3376 113L49.3254 113L49.3254 117ZM54.3458 117L57.358 117L57.358 113L54.3458 113L54.3458 117ZM59.3662 117L62.3785 117L62.3785 113L59.3662 113L59.3662 117ZM64.3866 117L67.3989 117L67.3989 113L64.3866 113L64.3866 117ZM69.407 117L72.4193 117L72.4193 113L69.407 113L69.407 117ZM74.4274 117L77.4397 117L77.4397 113L74.4274 113L74.4274 117ZM79.4478 117L82.4601 117L82.4601 113L79.4478 113L79.4478 117ZM84.4683 117L87.4805 117L87.4805 113L84.4683 113L84.4683 117ZM89.4887 117L92.5009 117L92.5009 113L89.4887 113L89.4887 117ZM94.5091 117L97.5213 117L97.5213 113L94.5091 113L94.5091 117ZM99.5295 117L102.542 117L102.542 113L99.5295 113L99.5295 117ZM104.55 117L107.562 117L107.562 113L104.55 113L104.55 117ZM109.57 117L112.583 117L112.583 113L109.57 113L109.57 117ZM114.591 117L117.603 117L117.603 113L114.591 113L114.591 117ZM119.611 117L122.623 117L122.623 113L119.611 113L119.611 117ZM124.632 117L127.644 117L127.644 113L124.632 113L124.632 117ZM129.652 117L132.664 117L132.664 113L129.652 113L129.652 117ZM134.672 117L137.685 117L137.685 113L134.672 113L134.672 117ZM139.693 117L142.705 117L142.705 113L139.693 113L139.693 117ZM144.713 117L147.725 117L147.725 113L144.713 113L144.713 117ZM149.734 117L152.746 117L152.746 113L149.734 113L149.734 117ZM154.754 117L157.766 117L157.766 113L154.754 113L154.754 117ZM159.774 117L162.787 117L162.787 113L159.774 113L159.774 117ZM164.795 117L167.807 117L167.807 113L164.795 113L164.795 117ZM169.815 117L172.827 117L172.827 113L169.815 113L169.815 117ZM174.836 117L177.848 117L177.848 113L174.836 113L174.836 117ZM179.856 117L182.868 117L182.868 113L179.856 113L179.856 117ZM184.876 117L187.889 117L187.889 113L184.876 113L184.876 117ZM189.897 117L192.909 117L192.909 113L189.897 113L189.897 117ZM194.917 117L197.929 117L197.929 113L194.917 113L194.917 117ZM199.938 117L202.95 117L202.95 113L199.938 113L199.938 117ZM204.958 117L207.97 117L207.97 113L204.958 113L204.958 117ZM209.978 117L212.991 117L212.991 113L209.978 113L209.978 117ZM214.999 117L218.011 117L218.011 113L214.999 113L214.999 117ZM220.019 117L223.031 117L223.031 113L220.019 113L220.019 117ZM225.04 117L228.052 117L228.052 113L225.04 113L225.04 117ZM230.06 117L233.072 117L233.072 113L230.06 113L230.06 117ZM235.08 117L238.093 117L238.093 113L235.08 113L235.08 117ZM240.101 117L243.113 117L243.113 113L240.101 113L240.101 117ZM245.121 117L246.627 117L246.627 113L245.121 113L245.121 117ZM0.627441 119L2.13356 119L2.13356 111L0.627441 111L0.627441 119ZM4.14172 119L7.15398 119L7.15398 111L4.14172 111L4.14172 119ZM9.16214 119L12.1744 119L12.1744 111L9.16214 111L9.16214 119ZM14.1825 119L17.1948 119L17.1948 111L14.1825 111L14.1825 119ZM19.203 119L22.2152 119L22.2152 111L19.203 111L19.203 119ZM24.2234 119L27.2356 119L27.2356 111L24.2234 111L24.2234 119ZM29.2438 119L32.256 119L32.256 111L29.2438 111L29.2438 119ZM34.2642 119L37.2764 119L37.2764 111L34.2642 111L34.2642 119ZM39.2846 119L42.2968 119L42.2968 111L39.2846 111L39.2846 119ZM44.305 119L47.3172 119L47.3172 111L44.305 111L44.305 119ZM49.3254 119L52.3376 119L52.3376 111L49.3254 111L49.3254 119ZM54.3458 119L57.358 119L57.358 111L54.3458 111L54.3458 119ZM59.3662 119L62.3785 119L62.3785 111L59.3662 111L59.3662 119ZM64.3866 119L67.3989 119L67.3989 111L64.3866 111L64.3866 119ZM69.407 119L72.4193 119L72.4193 111L69.407 111L69.407 119ZM74.4274 119L77.4397 119L77.4397 111L74.4274 111L74.4274 119ZM79.4478 119L82.4601 119L82.4601 111L79.4478 111L79.4478 119ZM84.4683 119L87.4805 119L87.4805 111L84.4683 111L84.4683 119ZM89.4887 119L92.5009 119L92.5009 111L89.4887 111L89.4887 119ZM94.5091 119L97.5213 119L97.5213 111L94.5091 111L94.5091 119ZM99.5295 119L102.542 119L102.542 111L99.5295 111L99.5295 119ZM104.55 119L107.562 119L107.562 111L104.55 111L104.55 119ZM109.57 119L112.583 119L112.583 111L109.57 111L109.57 119ZM114.591 119L117.603 119L117.603 111L114.591 111L114.591 119ZM119.611 119L122.623 119L122.623 111L119.611 111L119.611 119ZM124.632 119L127.644 119L127.644 111L124.632 111L124.632 119ZM129.652 119L132.664 119L132.664 111L129.652 111L129.652 119ZM134.672 119L137.685 119L137.685 111L134.672 111L134.672 119ZM139.693 119L142.705 119L142.705 111L139.693 111L139.693 119ZM144.713 119L147.725 119L147.725 111L144.713 111L144.713 119ZM149.734 119L152.746 119L152.746 111L149.734 111L149.734 119ZM154.754 119L157.766 119L157.766 111L154.754 111L154.754 119ZM159.774 119L162.787 119L162.787 111L159.774 111L159.774 119ZM164.795 119L167.807 119L167.807 111L164.795 111L164.795 119ZM169.815 119L172.827 119L172.827 111L169.815 111L169.815 119ZM174.836 119L177.848 119L177.848 111L174.836 111L174.836 119ZM179.856 119L182.868 119L182.868 111L179.856 111L179.856 119ZM184.876 119L187.889 119L187.889 111L184.876 111L184.876 119ZM189.897 119L192.909 119L192.909 111L189.897 111L189.897 119ZM194.917 119L197.929 119L197.929 111L194.917 111L194.917 119ZM199.938 119L202.95 119L202.95 111L199.938 111L199.938 119ZM204.958 119L207.97 119L207.97 111L204.958 111L204.958 119ZM209.978 119L212.991 119L212.991 111L209.978 111L209.978 119ZM214.999 119L218.011 119L218.011 111L214.999 111L214.999 119ZM220.019 119L223.031 119L223.031 111L220.019 111L220.019 119ZM225.04 119L228.052 119L228.052 111L225.04 111L225.04 119ZM230.06 119L233.072 119L233.072 111L230.06 111L230.06 119ZM235.08 119L238.093 119L238.093 111L235.08 111L235.08 119ZM240.101 119L243.113 119L243.113 111L240.101 111L240.101 119ZM245.121 119L246.627 119L246.627 111L245.121 111L245.121 119Z" fill="#444444" mask="url(#path-10-inside-2_0_1)"/>
<mask id="path-12-inside-3_0_1" fill="white">
<path d="M587.627 531L587.627 533L269.627 533L269.627 531L587.627 531Z"/>
</mask>
<path d="M269.627 535L271.118 535L271.118 531L269.627 531L269.627 535ZM273.105 535L276.086 535L276.086 531L273.105 531L273.105 535ZM278.074 535L281.055 535L281.055 531L278.074 531L278.074 535ZM283.043 535L286.024 535L286.024 531L283.043 531L283.043 535ZM288.011 535L290.993 535L290.993 531L288.011 531L288.011 535ZM292.98 535L295.961 535L295.961 531L292.98 531L292.98 535ZM297.949 535L300.93 535L300.93 531L297.949 531L297.949 535ZM302.918 535L305.899 535L305.899 531L302.918 531L302.918 535ZM307.886 535L310.868 535L310.868 531L307.886 531L307.886 535ZM312.855 535L315.836 535L315.836 531L312.855 531L312.855 535ZM317.824 535L320.805 535L320.805 531L317.824 531L317.824 535ZM322.793 535L325.774 535L325.774 531L322.793 531L322.793 535ZM327.761 535L330.743 535L330.743 531L327.761 531L327.761 535ZM332.73 535L335.711 535L335.711 531L332.73 531L332.73 535ZM337.699 535L340.68 535L340.68 531L337.699 531L337.699 535ZM342.668 535L345.649 535L345.649 531L342.668 531L342.668 535ZM347.636 535L350.618 535L350.618 531L347.636 531L347.636 535ZM352.605 535L355.586 535L355.586 531L352.605 531L352.605 535ZM357.574 535L360.555 535L360.555 531L357.574 531L357.574 535ZM362.543 535L365.524 535L365.524 531L362.543 531L362.543 535ZM367.511 535L370.493 535L370.493 531L367.511 531L367.511 535ZM372.48 535L375.461 535L375.461 531L372.48 531L372.48 535ZM377.449 535L380.43 535L380.43 531L377.449 531L377.449 535ZM382.418 535L385.399 535L385.399 531L382.418 531L382.418 535ZM387.386 535L390.368 535L390.368 531L387.386 531L387.386 535ZM392.355 535L395.336 535L395.336 531L392.355 531L392.355 535ZM397.324 535L400.305 535L400.305 531L397.324 531L397.324 535ZM402.293 535L405.274 535L405.274 531L402.293 531L402.293 535ZM407.261 535L410.243 535L410.243 531L407.261 531L407.261 535ZM412.23 535L415.211 535L415.211 531L412.23 531L412.23 535ZM417.199 535L420.18 535L420.18 531L417.199 531L417.199 535ZM422.168 535L425.149 535L425.149 531L422.168 531L422.168 535ZM427.136 535L430.118 535L430.118 531L427.136 531L427.136 535ZM432.105 535L435.086 535L435.086 531L432.105 531L432.105 535ZM437.074 535L440.055 535L440.055 531L437.074 531L437.074 535ZM442.043 535L445.024 535L445.024 531L442.043 531L442.043 535ZM447.011 535L449.993 535L449.993 531L447.011 531L447.011 535ZM451.98 535L454.961 535L454.961 531L451.98 531L451.98 535ZM456.949 535L459.93 535L459.93 531L456.949 531L456.949 535ZM461.918 535L464.899 535L464.899 531L461.918 531L461.918 535ZM466.886 535L469.868 535L469.868 531L466.886 531L466.886 535ZM471.855 535L474.836 535L474.836 531L471.855 531L471.855 535ZM476.824 535L479.805 535L479.805 531L476.824 531L476.824 535ZM481.793 535L484.774 535L484.774 531L481.793 531L481.793 535ZM486.761 535L489.743 535L489.743 531L486.761 531L486.761 535ZM491.73 535L494.711 535L494.711 531L491.73 531L491.73 535ZM496.699 535L499.68 535L499.68 531L496.699 531L496.699 535ZM501.668 535L504.649 535L504.649 531L501.668 531L501.668 535ZM506.636 535L509.618 535L509.618 531L506.636 531L506.636 535ZM511.605 535L514.586 535L514.586 531L511.605 531L511.605 535ZM516.574 535L519.555 535L519.555 531L516.574 531L516.574 535ZM521.543 535L524.524 535L524.524 531L521.543 531L521.543 535ZM526.511 535L529.493 535L529.493 531L526.511 531L526.511 535ZM531.48 535L534.461 535L534.461 531L531.48 531L531.48 535ZM536.449 535L539.43 535L539.43 531L536.449 531L536.449 535ZM541.418 535L544.399 535L544.399 531L541.418 531L541.418 535ZM546.386 535L549.368 535L549.368 531L546.386 531L546.386 535ZM551.355 535L554.336 535L554.336 531L551.355 531L551.355 535ZM556.324 535L559.305 535L559.305 531L556.324 531L556.324 535ZM561.293 535L564.274 535L564.274 531L561.293 531L561.293 535ZM566.261 535L569.243 535L569.243 531L566.261 531L566.261 535ZM571.23 535L574.211 535L574.211 531L571.23 531L571.23 535ZM576.199 535L579.18 535L579.18 531L576.199 531L576.199 535ZM581.168 535L584.149 535L584.149 531L581.168 531L581.168 535ZM586.136 535L587.627 535L587.627 531L586.136 531L586.136 535ZM269.627 537L271.118 537L271.118 529L269.627 529L269.627 537ZM273.105 537L276.086 537L276.086 529L273.105 529L273.105 537ZM278.074 537L281.055 537L281.055 529L278.074 529L278.074 537ZM283.043 537L286.024 537L286.024 529L283.043 529L283.043 537ZM288.011 537L290.993 537L290.993 529L288.011 529L288.011 537ZM292.98 537L295.961 537L295.961 529L292.98 529L292.98 537ZM297.949 537L300.93 537L300.93 529L297.949 529L297.949 537ZM302.918 537L305.899 537L305.899 529L302.918 529L302.918 537ZM307.886 537L310.868 537L310.868 529L307.886 529L307.886 537ZM312.855 537L315.836 537L315.836 529L312.855 529L312.855 537ZM317.824 537L320.805 537L320.805 529L317.824 529L317.824 537ZM322.793 537L325.774 537L325.774 529L322.793 529L322.793 537ZM327.761 537L330.743 537L330.743 529L327.761 529L327.761 537ZM332.73 537L335.711 537L335.711 529L332.73 529L332.73 537ZM337.699 537L340.68 537L340.68 529L337.699 529L337.699 537ZM342.668 537L345.649 537L345.649 529L342.668 529L342.668 537ZM347.636 537L350.618 537L350.618 529L347.636 529L347.636 537ZM352.605 537L355.586 537L355.586 529L352.605 529L352.605 537ZM357.574 537L360.555 537L360.555 529L357.574 529L357.574 537ZM362.543 537L365.524 537L365.524 529L362.543 529L362.543 537ZM367.511 537L370.493 537L370.493 529L367.511 529L367.511 537ZM372.48 537L375.461 537L375.461 529L372.48 529L372.48 537ZM377.449 537L380.43 537L380.43 529L377.449 529L377.449 537ZM382.418 537L385.399 537L385.399 529L382.418 529L382.418 537ZM387.386 537L390.368 537L390.368 529L387.386 529L387.386 537ZM392.355 537L395.336 537L395.336 529L392.355 529L392.355 537ZM397.324 537L400.305 537L400.305 529L397.324 529L397.324 537ZM402.293 537L405.274 537L405.274 529L402.293 529L402.293 537ZM407.261 537L410.243 537L410.243 529L407.261 529L407.261 537ZM412.23 537L415.211 537L415.211 529L412.23 529L412.23 537ZM417.199 537L420.18 537L420.18 529L417.199 529L417.199 537ZM422.168 537L425.149 537L425.149 529L422.168 529L422.168 537ZM427.136 537L430.118 537L430.118 529L427.136 529L427.136 537ZM432.105 537L435.086 537L435.086 529L432.105 529L432.105 537ZM437.074 537L440.055 537L440.055 529L437.074 529L437.074 537ZM442.043 537L445.024 537L445.024 529L442.043 529L442.043 537ZM447.011 537L449.993 537L449.993 529L447.011 529L447.011 537ZM451.98 537L454.961 537L454.961 529L451.98 529L451.98 537ZM456.949 537L459.93 537L459.93 529L456.949 529L456.949 537ZM461.918 537L464.899 537L464.899 529L461.918 529L461.918 537ZM466.886 537L469.868 537L469.868 529L466.886 529L466.886 537ZM471.855 537L474.836 537L474.836 529L471.855 529L471.855 537ZM476.824 537L479.805 537L479.805 529L476.824 529L476.824 537ZM481.793 537L484.774 537L484.774 529L481.793 529L481.793 537ZM486.761 537L489.743 537L489.743 529L486.761 529L486.761 537ZM491.73 537L494.711 537L494.711 529L491.73 529L491.73 537ZM496.699 537L499.68 537L499.68 529L496.699 529L496.699 537ZM501.668 537L504.649 537L504.649 529L501.668 529L501.668 537ZM506.636 537L509.618 537L509.618 529L506.636 529L506.636 537ZM511.605 537L514.586 537L514.586 529L511.605 529L511.605 537ZM516.574 537L519.555 537L519.555 529L516.574 529L516.574 537ZM521.543 537L524.524 537L524.524 529L521.543 529L521.543 537ZM526.511 537L529.493 537L529.493 529L526.511 529L526.511 537ZM531.48 537L534.461 537L534.461 529L531.48 529L531.48 537ZM536.449 537L539.43 537L539.43 529L536.449 529L536.449 537ZM541.418 537L544.399 537L544.399 529L541.418 529L541.418 537ZM546.386 537L549.368 537L549.368 529L546.386 529L546.386 537ZM551.355 537L554.336 537L554.336 529L551.355 529L551.355 537ZM556.324 537L559.305 537L559.305 529L556.324 529L556.324 537ZM561.293 537L564.274 537L564.274 529L561.293 529L561.293 537ZM566.261 537L569.243 537L569.243 529L566.261 529L566.261 537ZM571.23 537L574.211 537L574.211 529L571.23 529L571.23 537ZM576.199 537L579.18 537L579.18 529L576.199 529L576.199 537ZM581.168 537L584.149 537L584.149 529L581.168 529L581.168 537ZM586.136 537L587.627 537L587.627 529L586.136 529L586.136 537Z" fill="#444444" mask="url(#path-12-inside-3_0_1)"/>
<mask id="path-14-inside-4_0_1" fill="white">
<path d="M245.627 949L245.627 951L8.62744 951L8.62744 949L245.627 949Z"/>
</mask>
<path d="M8.62744 953L10.1402 953L10.1402 949L8.62744 949L8.62744 953ZM12.1572 953L15.1828 953L15.1828 949L12.1572 949L12.1572 953ZM17.1998 953L20.2253 953L20.2253 949L17.1998 949L17.1998 953ZM22.2423 953L25.2679 953L25.2679 949L22.2423 949L22.2423 953ZM27.2849 953L30.3104 953L30.3104 949L27.2849 949L27.2849 953ZM32.3274 953L35.353 953L35.353 949L32.3274 949L32.3274 953ZM37.37 953L40.3955 953L40.3955 949L37.37 949L37.37 953ZM42.4126 953L45.4381 953L45.4381 949L42.4126 949L42.4126 953ZM47.4551 953L50.4806 953L50.4806 949L47.4551 949L47.4551 953ZM52.4976 953L55.5232 953L55.5232 949L52.4977 949L52.4976 953ZM57.5402 953L60.5657 953L60.5657 949L57.5402 949L57.5402 953ZM62.5827 953L65.6083 953L65.6083 949L62.5827 949L62.5827 953ZM67.6253 953L70.6508 953L70.6508 949L67.6253 949L67.6253 953ZM72.6679 953L75.6934 953L75.6934 949L72.6679 949L72.6679 953ZM77.7104 953L80.736 953L80.736 949L77.7104 949L77.7104 953ZM82.753 953L85.7785 953L85.7785 949L82.753 949L82.753 953ZM87.7955 953L90.8211 953L90.8211 949L87.7955 949L87.7955 953ZM92.8381 953L95.8636 953L95.8636 949L92.8381 949L92.8381 953ZM97.8806 953L100.906 953L100.906 949L97.8806 949L97.8806 953ZM102.923 953L105.949 953L105.949 949L102.923 949L102.923 953ZM107.966 953L110.991 953L110.991 949L107.966 949L107.966 953ZM113.008 953L116.034 953L116.034 949L113.008 949L113.008 953ZM118.051 953L121.076 953L121.076 949L118.051 949L118.051 953ZM123.093 953L126.119 953L126.119 949L123.093 949L123.093 953ZM128.136 953L131.162 953L131.162 949L128.136 949L128.136 953ZM133.179 953L136.204 953L136.204 949L133.179 949L133.179 953ZM138.221 953L141.247 953L141.247 949L138.221 949L138.221 953ZM143.264 953L146.289 953L146.289 949L143.264 949L143.264 953ZM148.306 953L151.332 953L151.332 949L148.306 949L148.306 953ZM153.349 953L156.374 953L156.374 949L153.349 949L153.349 953ZM158.391 953L161.417 953L161.417 949L158.391 949L158.391 953ZM163.434 953L166.459 953L166.459 949L163.434 949L163.434 953ZM168.476 953L171.502 953L171.502 949L168.476 949L168.476 953ZM173.519 953L176.544 953L176.544 949L173.519 949L173.519 953ZM178.561 953L181.587 953L181.587 949L178.561 949L178.561 953ZM183.604 953L186.629 953L186.629 949L183.604 949L183.604 953ZM188.647 953L191.672 953L191.672 949L188.647 949L188.647 953ZM193.689 953L196.715 953L196.715 949L193.689 949L193.689 953ZM198.732 953L201.757 953L201.757 949L198.732 949L198.732 953ZM203.774 953L206.8 953L206.8 949L203.774 949L203.774 953ZM208.817 953L211.842 953L211.842 949L208.817 949L208.817 953ZM213.859 953L216.885 953L216.885 949L213.859 949L213.859 953ZM218.902 953L221.927 953L221.927 949L218.902 949L218.902 953ZM223.944 953L226.97 953L226.97 949L223.944 949L223.944 953ZM228.987 953L232.012 953L232.012 949L228.987 949L228.987 953ZM234.029 953L237.055 953L237.055 949L234.029 949L234.029 953ZM239.072 953L242.097 953L242.097 949L239.072 949L239.072 953ZM244.114 953L245.627 953L245.627 949L244.114 949L244.114 953ZM8.62744 955L10.1402 955L10.1402 947L8.62744 947L8.62744 955ZM12.1572 955L15.1828 955L15.1828 947L12.1572 947L12.1572 955ZM17.1998 955L20.2253 955L20.2253 947L17.1998 947L17.1998 955ZM22.2423 955L25.2679 955L25.2679 947L22.2423 947L22.2423 955ZM27.2849 955L30.3104 955L30.3104 947L27.2849 947L27.2849 955ZM32.3274 955L35.353 955L35.353 947L32.3274 947L32.3274 955ZM37.37 955L40.3955 955L40.3955 947L37.37 947L37.37 955ZM42.4126 955L45.4381 955L45.4381 947L42.4126 947L42.4126 955ZM47.4551 955L50.4806 955L50.4806 947L47.4551 947L47.4551 955ZM52.4976 955L55.5232 955L55.5232 947L52.4977 947L52.4976 955ZM57.5402 955L60.5657 955L60.5657 947L57.5402 947L57.5402 955ZM62.5827 955L65.6083 955L65.6083 947L62.5827 947L62.5827 955ZM67.6253 955L70.6508 955L70.6508 947L67.6253 947L67.6253 955ZM72.6679 955L75.6934 955L75.6934 947L72.6679 947L72.6679 955ZM77.7104 955L80.736 955L80.736 947L77.7104 947L77.7104 955ZM82.753 955L85.7785 955L85.7785 947L82.753 947L82.753 955ZM87.7955 955L90.8211 955L90.8211 947L87.7955 947L87.7955 955ZM92.8381 955L95.8636 955L95.8636 947L92.8381 947L92.8381 955ZM97.8806 955L100.906 955L100.906 947L97.8806 947L97.8806 955ZM102.923 955L105.949 955L105.949 947L102.923 947L102.923 955ZM107.966 955L110.991 955L110.991 947L107.966 947L107.966 955ZM113.008 955L116.034 955L116.034 947L113.008 947L113.008 955ZM118.051 955L121.076 955L121.076 947L118.051 947L118.051 955ZM123.093 955L126.119 955L126.119 947L123.093 947L123.093 955ZM128.136 955L131.162 955L131.162 947L128.136 947L128.136 955ZM133.179 955L136.204 955L136.204 947L133.179 947L133.179 955ZM138.221 955L141.247 955L141.247 947L138.221 947L138.221 955ZM143.264 955L146.289 955L146.289 947L143.264 947L143.264 955ZM148.306 955L151.332 955L151.332 947L148.306 947L148.306 955ZM153.349 955L156.374 955L156.374 947L153.349 947L153.349 955ZM158.391 955L161.417 955L161.417 947L158.391 947L158.391 955ZM163.434 955L166.459 955L166.459 947L163.434 947L163.434 955ZM168.476 955L171.502 955L171.502 947L168.476 947L168.476 955ZM173.519 955L176.544 955L176.544 947L173.519 947L173.519 955ZM178.561 955L181.587 955L181.587 947L178.561 947L178.561 955ZM183.604 955L186.629 955L186.629 947L183.604 947L183.604 955ZM188.647 955L191.672 955L191.672 947L188.647 947L188.647 955ZM193.689 955L196.715 955L196.715 947L193.689 947L193.689 955ZM198.732 955L201.757 955L201.757 947L198.732 947L198.732 955ZM203.774 955L206.8 955L206.8 947L203.774 947L203.774 955ZM208.817 955L211.842 955L211.842 947L208.817 947L208.817 955ZM213.859 955L216.885 955L216.885 947L213.859 947L213.859 955ZM218.902 955L221.927 955L221.927 947L218.902 947L218.902 955ZM223.944 955L226.97 955L226.97 947L223.944 947L223.944 955ZM228.987 955L232.012 955L232.012 947L228.987 947L228.987 955ZM234.029 955L237.055 955L237.055 947L234.029 947L234.029 955ZM239.072 955L242.097 955L242.097 947L239.072 947L239.072 955ZM244.114 955L245.627 955L245.627 947L244.114 947L244.114 955Z" fill="#444444" mask="url(#path-14-inside-4_0_1)"/>
<mask id="path-16-inside-5_0_1" fill="white">
<path d="M256.627 546H258.627V936H256.627V546Z"/>
</mask>
<path d="M259.627 936V934.5H257.627V936H259.627ZM259.627 932.5V929.5H257.627V932.5H259.627ZM259.627 927.5V924.5H257.627V927.5H259.627ZM259.627 922.5V919.5H257.627V922.5H259.627ZM259.627 917.5V914.5H257.627V917.5H259.627ZM259.627 912.5V909.5H257.627V912.5H259.627ZM259.627 907.5V904.5H257.627V907.5H259.627ZM259.627 902.5V899.5H257.627V902.5H259.627ZM259.627 897.5V894.5H257.627V897.5H259.627ZM259.627 892.5V889.5H257.627V892.5H259.627ZM259.627 887.5V884.5H257.627V887.5H259.627ZM259.627 882.5V879.5H257.627V882.5H259.627ZM259.627 877.5V874.5H257.627V877.5H259.627ZM259.627 872.5V869.5H257.627V872.5H259.627ZM259.627 867.5V864.5H257.627V867.5H259.627ZM259.627 862.5V859.5H257.627V862.5H259.627ZM259.627 857.5V854.5H257.627V857.5H259.627ZM259.627 852.5V849.5H257.627V852.5H259.627ZM259.627 847.5V844.5H257.627V847.5H259.627ZM259.627 842.5V839.5H257.627V842.5H259.627ZM259.627 837.5V834.5H257.627V837.5H259.627ZM259.627 832.5V829.5H257.627V832.5H259.627ZM259.627 827.5V824.5H257.627V827.5H259.627ZM259.627 822.5V819.5H257.627V822.5H259.627ZM259.627 817.5V814.5H257.627V817.5H259.627ZM259.627 812.5V809.5H257.627V812.5H259.627ZM259.627 807.5V804.5H257.627V807.5H259.627ZM259.627 802.5V799.5H257.627V802.5H259.627ZM259.627 797.5V794.5H257.627V797.5H259.627ZM259.627 792.5V789.5H257.627V792.5H259.627ZM259.627 787.5V784.5H257.627V787.5H259.627ZM259.627 782.5V779.5H257.627V782.5H259.627ZM259.627 777.5V774.5H257.627V777.5H259.627ZM259.627 772.5V769.5H257.627V772.5H259.627ZM259.627 767.5V764.5H257.627V767.5H259.627ZM259.627 762.5V759.5H257.627V762.5H259.627ZM259.627 757.5V754.5H257.627V757.5H259.627ZM259.627 752.5V749.5H257.627V752.5H259.627ZM259.627 747.5V744.5H257.627V747.5H259.627ZM259.627 742.5V739.5H257.627V742.5H259.627ZM259.627 737.5V734.5H257.627V737.5H259.627ZM259.627 732.5V729.5H257.627V732.5H259.627ZM259.627 727.5V724.5H257.627V727.5H259.627ZM259.627 722.5V719.5H257.627V722.5H259.627ZM259.627 717.5V714.5H257.627V717.5H259.627ZM259.627 712.5V709.5H257.627V712.5H259.627ZM259.627 707.5V704.5H257.627V707.5H259.627ZM259.627 702.5V699.5H257.627V702.5H259.627ZM259.627 697.5V694.5H257.627V697.5H259.627ZM259.627 692.5V689.5H257.627V692.5H259.627ZM259.627 687.5V684.5H257.627V687.5H259.627ZM259.627 682.5V679.5H257.627V682.5H259.627ZM259.627 677.5V674.5H257.627V677.5H259.627ZM259.627 672.5V669.5H257.627V672.5H259.627ZM259.627 667.5V664.5H257.627V667.5H259.627ZM259.627 662.5V659.5H257.627V662.5H259.627ZM259.627 657.5V654.5H257.627V657.5H259.627ZM259.627 652.5V649.5H257.627V652.5H259.627ZM259.627 647.5V644.5H257.627V647.5H259.627ZM259.627 642.5V639.5H257.627V642.5H259.627ZM259.627 637.5V634.5H257.627V637.5H259.627ZM259.627 632.5V629.5H257.627V632.5H259.627ZM259.627 627.5V624.5H257.627V627.5H259.627ZM259.627 622.5V619.5H257.627V622.5H259.627ZM259.627 617.5V614.5H257.627V617.5H259.627ZM259.627 612.5V609.5H257.627V612.5H259.627ZM259.627 607.5V604.5H257.627V607.5H259.627ZM259.627 602.5V599.5H257.627V602.5H259.627ZM259.627 597.5V594.5H257.627V597.5H259.627ZM259.627 592.5V589.5H257.627V592.5H259.627ZM259.627 587.5V584.5H257.627V587.5H259.627ZM259.627 582.5V579.5H257.627V582.5H259.627ZM259.627 577.5V574.5H257.627V577.5H259.627ZM259.627 572.5V569.5H257.627V572.5H259.627ZM259.627 567.5V564.5H257.627V567.5H259.627ZM259.627 562.5V559.5H257.627V562.5H259.627ZM259.627 557.5V554.5H257.627V557.5H259.627ZM259.627 552.5V549.5H257.627V552.5H259.627ZM259.627 547.5V546H257.627V547.5H259.627ZM260.627 936V934.5H256.627V936H260.627ZM260.627 932.5V929.5H256.627V932.5H260.627ZM260.627 927.5V924.5H256.627V927.5H260.627ZM260.627 922.5V919.5H256.627V922.5H260.627ZM260.627 917.5V914.5H256.627V917.5H260.627ZM260.627 912.5V909.5H256.627V912.5H260.627ZM260.627 907.5V904.5H256.627V907.5H260.627ZM260.627 902.5V899.5H256.627V902.5H260.627ZM260.627 897.5V894.5H256.627V897.5H260.627ZM260.627 892.5V889.5H256.627V892.5H260.627ZM260.627 887.5V884.5H256.627V887.5H260.627ZM260.627 882.5V879.5H256.627V882.5H260.627ZM260.627 877.5V874.5H256.627V877.5H260.627ZM260.627 872.5V869.5H256.627V872.5H260.627ZM260.627 867.5V864.5H256.627V867.5H260.627ZM260.627 862.5V859.5H256.627V862.5H260.627ZM260.627 857.5V854.5H256.627V857.5H260.627ZM260.627 852.5V849.5H256.627V852.5H260.627ZM260.627 847.5V844.5H256.627V847.5H260.627ZM260.627 842.5V839.5H256.627V842.5H260.627ZM260.627 837.5V834.5H256.627V837.5H260.627ZM260.627 832.5V829.5H256.627V832.5H260.627ZM260.627 827.5V824.5H256.627V827.5H260.627ZM260.627 822.5V819.5H256.627V822.5H260.627ZM260.627 817.5V814.5H256.627V817.5H260.627ZM260.627 812.5V809.5H256.627V812.5H260.627ZM260.627 807.5V804.5H256.627V807.5H260.627ZM260.627 802.5V799.5H256.627V802.5H260.627ZM260.627 797.5V794.5H256.627V797.5H260.627ZM260.627 792.5V789.5H256.627V792.5H260.627ZM260.627 787.5V784.5H256.627V787.5H260.627ZM260.627 782.5V779.5H256.627V782.5H260.627ZM260.627 777.5V774.5H256.627V777.5H260.627ZM260.627 772.5V769.5H256.627V772.5H260.627ZM260.627 767.5V764.5H256.627V767.5H260.627ZM260.627 762.5V759.5H256.627V762.5H260.627ZM260.627 757.5V754.5H256.627V757.5H260.627ZM260.627 752.5V749.5H256.627V752.5H260.627ZM260.627 747.5V744.5H256.627V747.5H260.627ZM260.627 742.5V739.5H256.627V742.5H260.627ZM260.627 737.5V734.5H256.627V737.5H260.627ZM260.627 732.5V729.5H256.627V732.5H260.627ZM260.627 727.5V724.5H256.627V727.5H260.627ZM260.627 722.5V719.5H256.627V722.5H260.627ZM260.627 717.5V714.5H256.627V717.5H260.627ZM260.627 712.5V709.5H256.627V712.5H260.627ZM260.627 707.5V704.5H256.627V707.5H260.627ZM260.627 702.5V699.5H256.627V702.5H260.627ZM260.627 697.5V694.5H256.627V697.5H260.627ZM260.627 692.5V689.5H256.627V692.5H260.627ZM260.627 687.5V684.5H256.627V687.5H260.627ZM260.627 682.5V679.5H256.627V682.5H260.627ZM260.627 677.5V674.5H256.627V677.5H260.627ZM260.627 672.5V669.5H256.627V672.5H260.627ZM260.627 667.5V664.5H256.627V667.5H260.627ZM260.627 662.5V659.5H256.627V662.5H260.627ZM260.627 657.5V654.5H256.627V657.5H260.627ZM260.627 652.5V649.5H256.627V652.5H260.627ZM260.627 647.5V644.5H256.627V647.5H260.627ZM260.627 642.5V639.5H256.627V642.5H260.627ZM260.627 637.5V634.5H256.627V637.5H260.627ZM260.627 632.5V629.5H256.627V632.5H260.627ZM260.627 627.5V624.5H256.627V627.5H260.627ZM260.627 622.5V619.5H256.627V622.5H260.627ZM260.627 617.5V614.5H256.627V617.5H260.627ZM260.627 612.5V609.5H256.627V612.5H260.627ZM260.627 607.5V604.5H256.627V607.5H260.627ZM260.627 602.5V599.5H256.627V602.5H260.627ZM260.627 597.5V594.5H256.627V597.5H260.627ZM260.627 592.5V589.5H256.627V592.5H260.627ZM260.627 587.5V584.5H256.627V587.5H260.627ZM260.627 582.5V579.5H256.627V582.5H260.627ZM260.627 577.5V574.5H256.627V577.5H260.627ZM260.627 572.5V569.5H256.627V572.5H260.627ZM260.627 567.5V564.5H256.627V567.5H260.627ZM260.627 562.5V559.5H256.627V562.5H260.627ZM260.627 557.5V554.5H256.627V557.5H260.627ZM260.627 552.5V549.5H256.627V552.5H260.627ZM260.627 547.5V546H256.627V547.5H260.627Z" fill="#444444" mask="url(#path-16-inside-5_0_1)"/>
<g clip-path="url(#clip0_0_1)">
<path d="M257.625 955.196C256.887 955.196 256.234 955.065 255.665 954.804C255.095 954.543 254.647 954.169 254.321 953.684C254.003 953.189 253.845 952.606 253.845 951.934V951.682H255.637V951.878C255.637 952.401 255.819 952.821 256.183 953.138C256.547 953.446 257.027 953.6 257.625 953.6C258.231 953.6 258.698 953.455 259.025 953.166C259.361 952.877 259.529 952.513 259.529 952.074V951.934C259.529 951.635 259.454 951.393 259.305 951.206C259.155 951.019 258.955 950.884 258.703 950.8C258.451 950.707 258.166 950.66 257.849 950.66H255.889V948.7L259.053 947.02V946.796H254.097V945.2H261.041V947.58L258.087 949.148V949.372H258.605C259.043 949.372 259.468 949.461 259.879 949.638C260.299 949.815 260.644 950.091 260.915 950.464C261.185 950.828 261.321 951.304 261.321 951.892V952.06C261.321 952.695 261.167 953.25 260.859 953.726C260.551 954.193 260.117 954.557 259.557 954.818C259.006 955.07 258.362 955.196 257.625 955.196Z" fill="white"/>
<g filter="url(#filter2_i_0_1)">
<ellipse cx="257.627" cy="950" rx="11.9998" ry="12" fill="white" fill-opacity="0.01"/>
</g>
<path d="M268.627 950C268.627 956.075 263.702 961 257.627 961C251.552 961 246.627 956.075 246.627 950C246.627 943.925 251.552 939 257.627 939C263.702 939 268.627 943.925 268.627 950Z" stroke="#444444" stroke-width="2"/>
</g>
<rect x="256.627" y="964" width="2" height="443" fill="url(#paint1_linear_0_1)"/>
<rect x="237.627" y="1400.5" width="40" height="40" rx="20" fill="url(#paint2_linear_0_1)"/>
<path d="M257.724 1426.72C256.882 1426.72 256.135 1426.57 255.484 1426.28C254.834 1425.98 254.322 1425.55 253.948 1425C253.586 1424.43 253.404 1423.76 253.404 1423V1422.71H255.452V1422.93C255.452 1423.53 255.66 1424.01 256.076 1424.37C256.492 1424.72 257.042 1424.9 257.724 1424.9C258.418 1424.9 258.951 1424.73 259.324 1424.4C259.708 1424.07 259.9 1423.66 259.9 1423.16V1423C259.9 1422.65 259.815 1422.38 259.644 1422.16C259.474 1421.95 259.244 1421.8 258.956 1421.7C258.668 1421.59 258.343 1421.54 257.98 1421.54H255.74V1419.3L259.356 1417.38V1417.12H253.692V1415.3H261.628V1418.02L258.252 1419.81V1420.07H258.844C259.346 1420.07 259.831 1420.17 260.3 1420.37C260.78 1420.57 261.175 1420.89 261.484 1421.32C261.794 1421.73 261.948 1422.28 261.948 1422.95V1423.14C261.948 1423.87 261.772 1424.5 261.42 1425.04C261.068 1425.58 260.572 1425.99 259.932 1426.29C259.303 1426.58 258.567 1426.72 257.724 1426.72Z" fill="black"/>
<defs>
<filter id="filter0_i_0_1" x="245.628" y="520" width="23.999" height="28" filterUnits="userSpaceOnUse" color-interpolation-filters="sRGB">
<feFlood flood-opacity="0" result="BackgroundImageFix"/>
<feBlend mode="normal" in="SourceGraphic" in2="BackgroundImageFix" result="shape"/>
<feColorMatrix in="SourceAlpha" type="matrix" values="0 0 0 0 0 0 0 0 0 0 0 0 0 0 0 0 0 0 127 0" result="hardAlpha"/>
<feOffset dy="4"/>
<feGaussianBlur stdDeviation="2"/>
<feComposite in2="hardAlpha" operator="arithmetic" k2="-1" k3="1"/>
<feColorMatrix type="matrix" values="0 0 0 0 0 0 0 0 0 0 0 0 0 0 0 0 0 0 0.25 0"/>
<feBlend mode="normal" in2="shape" result="effect1_innerShadow_0_1"/>
</filter>
<filter id="filter1_i_0_1" x="245.628" y="102" width="23.999" height="28" filterUnits="userSpaceOnUse" color-interpolation-filters="sRGB">
<feFlood flood-opacity="0" result="BackgroundImageFix"/>
<feBlend mode="normal" in="SourceGraphic" in2="BackgroundImageFix" result="shape"/>
<feColorMatrix in="SourceAlpha" type="matrix" values="0 0 0 0 0 0 0 0 0 0 0 0 0 0 0 0 0 0 127 0" result="hardAlpha"/>
<feOffset dy="4"/>
<feGaussianBlur stdDeviation="2"/>
<feComposite in2="hardAlpha" operator="arithmetic" k2="-1" k3="1"/>
<feColorMatrix type="matrix" values="0 0 0 0 0 0 0 0 0 0 0 0 0 0 0 0 0 0 0.25 0"/>
<feBlend mode="normal" in2="shape" result="effect1_innerShadow_0_1"/>
</filter>
<filter id="filter2_i_0_1" x="245.627" y="938" width="23.9995" height="28" filterUnits="userSpaceOnUse" color-interpolation-filters="sRGB">
<feFlood flood-opacity="0" result="BackgroundImageFix"/>
<feBlend mode="normal" in="SourceGraphic" in2="BackgroundImageFix" result="shape"/>
<feColorMatrix in="SourceAlpha" type="matrix" values="0 0 0 0 0 0 0 0 0 0 0 0 0 0 0 0 0 0 127 0" result="hardAlpha"/>
<feOffset dy="4"/>
<feGaussianBlur stdDeviation="2"/>
<feComposite in2="hardAlpha" operator="arithmetic" k2="-1" k3="1"/>
<feColorMatrix type="matrix" values="0 0 0 0 0 0 0 0 0 0 0 0 0 0 0 0 0 0 0.25 0"/>
<feBlend mode="normal" in2="shape" result="effect1_innerShadow_0_1"/>
</filter>
<linearGradient id="paint0_linear_0_1" x1="0.999999" y1="0" x2="0.999999" y2="100" gradientUnits="userSpaceOnUse">
<stop/>
<stop offset="1" stop-color="#444444"/>
</linearGradient>
<linearGradient id="paint1_linear_0_1" x1="257.627" y1="964" x2="257.627" y2="1407" gradientUnits="userSpaceOnUse">
<stop stop-color="#444444"/>
<stop offset="1" stop-color="#6820B0"/>
</linearGradient>
<linearGradient id="paint2_linear_0_1" x1="237.627" y1="1420.5" x2="277.627" y2="1420.5" gradientUnits="userSpaceOnUse">
<stop stop-color="#6820B0"/>
<stop offset="1" stop-color="#8856B8"/>
</linearGradient>
<clipPath id="clip0_0_1">
<rect x="245.627" y="938" width="24" height="24" rx="12" fill="white"/>
</clipPath>
</defs>
</svg>
