<svg width="40" height="140" viewBox="0 0 40 140" fill="none" xmlns="http://www.w3.org/2000/svg">
<rect x="19.2002" width="1" height="100" fill="url(#paint0_linear_0_1)"/>
<rect y="100" width="40" height="40" rx="20" fill="url(#paint1_linear_0_1)"/>
<path d="M19.0168 126.224C18.1741 126.224 17.4275 126.075 16.7768 125.776C16.1261 125.477 15.6141 125.051 15.2408 124.496C14.8781 123.931 14.6968 123.264 14.6968 122.496V122.208H16.7448V122.432C16.7448 123.029 16.9528 123.509 17.3688 123.872C17.7848 124.224 18.3341 124.4 19.0168 124.4C19.7101 124.4 20.2435 124.235 20.6168 123.904C21.0008 123.573 21.1928 123.157 21.1928 122.656V122.496C21.1928 122.155 21.1075 121.877 20.9368 121.664C20.7661 121.451 20.5368 121.296 20.2488 121.2C19.9608 121.093 19.6355 121.04 19.2728 121.04H17.0328V118.8L20.6488 116.88V116.624H14.9848V114.8H22.9208V117.52L19.5448 119.312V119.568H20.1368C20.6381 119.568 21.1235 119.669 21.5928 119.872C22.0728 120.075 22.4675 120.389 22.7768 120.816C23.0861 121.232 23.2408 121.776 23.2408 122.448V122.64C23.2408 123.365 23.0648 124 22.7128 124.544C22.3608 125.077 21.8648 125.493 21.2248 125.792C20.5955 126.08 19.8595 126.224 19.0168 126.224Z" fill="black"/>
<defs>
<linearGradient id="paint0_linear_0_1" x1="19.0002" y1="4.24235e-07" x2="20" y2="100" gradientUnits="userSpaceOnUse">
<stop/>
<stop offset="0.845839" stop-color="#8856B8"/>
</linearGradient>
<linearGradient id="paint1_linear_0_1" x1="0" y1="120" x2="40" y2="120" gradientUnits="userSpaceOnUse">
<stop stop-color="#6820B0"/>
<stop offset="1" stop-color="#8856B8"/>
</linearGradient>
</defs>
</svg>
