<svg width="40" height="141" viewBox="0 0 40 141" fill="none" xmlns="http://www.w3.org/2000/svg">
                <rect x="19.2002" y="0.5" width="1" height="100" fill="url(#paint0_linear_0_1)"/>
                <rect y="100.5" width="40" height="40" rx="20" fill="url(#paint1_linear_0_1)"/>
                <path d="M14.942 126.5V125.156C14.942 124.377 15.07 123.732 15.326 123.22C15.582 122.697 15.95 122.271 16.43 121.94C16.9207 121.599 17.518 121.321 18.222 121.108L19.294 120.772C19.6887 120.644 20.0193 120.489 20.286 120.308C20.5527 120.116 20.7553 119.887 20.894 119.62C21.0433 119.353 21.118 119.049 21.118 118.708V118.644C21.118 118.111 20.9367 117.689 20.574 117.38C20.2113 117.06 19.7153 116.9 19.086 116.9C18.4673 116.9 17.966 117.071 17.582 117.412C17.2087 117.743 17.022 118.223 17.022 118.852V119.14H14.974V118.884C14.974 118.073 15.1553 117.385 15.518 116.82C15.8807 116.255 16.3713 115.823 16.99 115.524C17.6193 115.225 18.318 115.076 19.086 115.076C19.854 115.076 20.5473 115.225 21.166 115.524C21.7847 115.812 22.27 116.223 22.622 116.756C22.9847 117.279 23.166 117.897 23.166 118.612V118.772C23.166 119.487 23.0167 120.095 22.718 120.596C22.43 121.087 22.0353 121.492 21.534 121.812C21.0327 122.121 20.462 122.377 19.822 122.58L18.798 122.9C18.3393 123.039 17.982 123.193 17.726 123.364C17.47 123.524 17.2887 123.705 17.182 123.908C17.086 124.1 17.038 124.335 17.038 124.612V124.676H23.07V126.5H14.942Z" fill="black"/>
                <defs>
                <linearGradient id="paint0_linear_0_1" x1="19.0002" y1="0.5" x2="20" y2="100.5" gradientUnits="userSpaceOnUse">
                <stop/>
                <stop offset="0.845839" stop-color="#8856B8"/>
                </linearGradient>
                <linearGradient id="paint1_linear_0_1" x1="0" y1="120.5" x2="40" y2="120.5" gradientUnits="userSpaceOnUse">
                <stop stop-color="#6820B0"/>
                <stop offset="1" stop-color="#8856B8"/>
                </linearGradient>
                </defs>
                </svg>    