<svg width="18" height="17" viewBox="0 0 18 17" fill="none" xmlns="http://www.w3.org/2000/svg">
<mask id="path-1-inside-1_2_2342" fill="white">
<path d="M11.0938 3.84962C10.9299 4.01683 10.8381 4.24164 10.8381 4.47577C10.8381 4.70991 10.9299 4.93472 11.0938 5.10193L12.525 6.53313C12.6922 6.69703 12.917 6.78883 13.1512 6.78883C13.3853 6.78883 13.6101 6.69703 13.7773 6.53313L17.1496 3.16085C17.5994 4.15482 17.7356 5.26225 17.54 6.33558C17.3445 7.4089 16.8264 8.39714 16.055 9.16859C15.2835 9.94004 14.2953 10.4581 13.222 10.6536C12.1486 10.8492 11.0412 10.713 10.0473 10.2632L3.86624 16.4442C3.51038 16.8001 3.02774 17 2.52448 17C2.02123 17 1.53858 16.8001 1.18273 16.4442C0.826871 16.0884 0.626953 15.6057 0.626953 15.1025C0.626953 14.5992 0.826871 14.1166 1.18273 13.7607L7.36374 7.5797C6.91396 6.58574 6.77777 5.4783 6.97333 4.40498C7.16889 3.33165 7.68692 2.34342 8.45837 1.57197C9.22982 0.800517 10.2181 0.282494 11.2914 0.0869316C12.3647 -0.108631 13.4721 0.0275566 14.4661 0.477344L11.1028 3.84068L11.0938 3.84962Z"/>
</mask>
<path d="M11.0938 3.84962L2.60854 -4.63566C2.58025 -4.60737 2.55211 -4.57895 2.52411 -4.55038L11.0938 3.84962ZM11.0938 5.10193L2.52411 13.5019C2.55211 13.5305 2.58025 13.5589 2.60853 13.5872L11.0938 5.10193ZM12.525 6.53313L4.03974 15.0184C4.06803 15.0467 4.09646 15.0748 4.12502 15.1028L12.525 6.53313ZM13.7773 6.53313L22.1773 15.1028C22.2059 15.0748 22.2343 15.0467 22.2626 15.0184L13.7773 6.53313ZM17.1496 3.16085L28.0823 -1.78642C26.4583 -5.37538 23.1761 -7.93866 19.3006 -8.64479C15.4251 -9.35091 11.4498 -8.10994 8.66432 -5.32442L17.1496 3.16085ZM10.0473 10.2632L14.9945 -0.669513C10.444 -2.72872 5.0938 -1.7539 1.56197 1.77793L10.0473 10.2632ZM3.86624 16.4442L-4.61904 7.95894L-4.61905 7.95895L3.86624 16.4442ZM2.52448 17V29V17ZM0.626953 15.1025H-11.373H0.626953ZM1.18273 13.7607L-7.30256 5.27544L-7.30256 5.27544L1.18273 13.7607ZM7.36374 7.5797L15.849 16.065C19.3809 12.5332 20.3557 7.18295 18.2965 2.63243L7.36374 7.5797ZM14.4661 0.477344L22.9514 8.96262C25.7369 6.17711 26.9779 2.20184 26.2717 -1.67367C25.5656 -5.54918 23.0023 -8.83131 19.4134 -10.4554L14.4661 0.477344ZM11.1028 3.84068L19.588 12.326L19.5881 12.326L11.1028 3.84068ZM2.52411 -4.55038C0.16151 -2.14005 -1.16188 1.10057 -1.16188 4.47577H22.8381C22.8381 7.3827 21.6983 10.1737 19.6635 12.2496L2.52411 -4.55038ZM-1.16188 4.47577C-1.16188 7.85098 0.16151 11.0916 2.52411 13.5019L19.6635 -3.29807C21.6983 -1.22216 22.8381 1.56885 22.8381 4.47577H-1.16188ZM2.60853 13.5872L4.03974 15.0184L21.0103 -1.95214L19.5791 -3.38335L2.60853 13.5872ZM4.12502 15.1028C6.53539 17.4655 9.77601 18.7888 13.1512 18.7888V-5.21117C16.0581 -5.21117 18.8491 -4.07141 20.925 -2.03658L4.12502 15.1028ZM13.1512 18.7888C16.5263 18.7888 19.767 17.4655 22.1773 15.1028L5.37733 -2.03658C7.45327 -4.07141 10.2443 -5.21117 13.1512 -5.21117V18.7888ZM22.2626 15.0184L25.6349 11.6461L8.66432 -5.32442L5.29205 -1.95215L22.2626 15.0184ZM6.21688 8.10813C5.661 6.87972 5.49269 5.51107 5.73438 4.18456L29.3457 8.48659C29.9785 5.01344 29.5378 1.42991 28.0823 -1.78642L6.21688 8.10813ZM5.73438 4.18456C5.97607 2.85807 6.61628 1.63673 7.5697 0.683307L24.5403 17.6539C27.0366 15.1575 28.7128 11.9597 29.3457 8.48659L5.73438 4.18456ZM7.5697 0.683307C8.52312 -0.270112 9.74446 -0.910325 11.071 -1.15202L15.373 22.4593C18.8461 21.8264 22.0439 20.1502 24.5403 17.6539L7.5697 0.683307ZM11.071 -1.15202C12.3975 -1.39371 13.7661 -1.2254 14.9945 -0.669513L5.09998 21.1959C8.31632 22.6514 11.8998 23.0921 15.373 22.4593L11.071 -1.15202ZM1.56197 1.77793L-4.61904 7.95894L12.3515 24.9295L18.5325 18.7485L1.56197 1.77793ZM-4.61905 7.95895C-2.72447 6.06437 -0.154867 5 2.52448 5V29C6.21034 29 9.74523 27.5358 12.3515 24.9295L-4.61905 7.95895ZM2.52448 5C5.20383 5 7.77343 6.06437 9.66801 7.95895L-7.30256 24.9295C-4.69627 27.5358 -1.16138 29 2.52448 29V5ZM9.66801 7.95895C11.5626 9.85353 12.627 12.4231 12.627 15.1025H-11.373C-11.373 18.7883 -9.90885 22.3232 -7.30256 24.9295L9.66801 7.95895ZM12.627 15.1025C12.627 17.7818 11.5626 20.3514 9.66801 22.246L-7.30256 5.27544C-9.90884 7.88173 -11.373 11.4166 -11.373 15.1025H12.627ZM9.66801 22.246L15.849 16.065L-1.12154 -0.90558L-7.30256 5.27544L9.66801 22.246ZM18.2965 2.63243C18.8524 3.86084 19.0207 5.2295 18.779 6.55599L-4.83231 2.25396C-5.46513 5.72711 -5.02444 9.31063 -3.56898 12.527L18.2965 2.63243ZM18.779 6.55599C18.5373 7.88249 17.8971 9.10383 16.9436 10.0572L-0.0269167 -6.91331C-2.52324 -4.41699 -4.1995 -1.21918 -4.83231 2.25396L18.779 6.55599ZM16.9436 10.0572C15.9902 11.0107 14.7689 11.6509 13.4424 11.8926L9.14036 -11.7187C5.66721 -11.0859 2.4694 -9.40963 -0.0269167 -6.91331L16.9436 10.0572ZM13.4424 11.8926C12.1159 12.1343 10.7472 11.966 9.51882 11.4101L19.4134 -10.4554C16.197 -11.9108 12.6135 -12.3515 9.14036 -11.7187L13.4424 11.8926ZM5.98081 -8.00793L2.61748 -4.6446L19.5881 12.326L22.9514 8.96262L5.98081 -8.00793ZM2.61748 -4.6446L2.60854 -4.63566L19.5791 12.3349L19.588 12.326L2.61748 -4.6446Z" fill="#A8A5BD" mask="url(#path-1-inside-1_2_2342)"/>
</svg>
